<svg width="20" height="21" viewBox="0 0 20 21" fill="none" xmlns="http://www.w3.org/2000/svg">
<path d="M14.6814 5.33247L15.8926 4.12132L17.0711 5.29982L15.8599 6.51097C16.8863 7.79404 17.5 9.42155 17.5 11.1924C17.5 15.3345 14.1422 18.6924 10 18.6924C5.85787 18.6924 2.5 15.3345 2.5 11.1924C2.5 7.05025 5.85787 3.69238 10 3.69238C11.7708 3.69238 13.3983 4.30611 14.6814 5.33247ZM10 17.0257C13.2217 17.0257 15.8333 14.414 15.8333 11.1924C15.8333 7.97072 13.2217 5.35905 10 5.35905C6.77834 5.35905 4.16667 7.97072 4.16667 11.1924C4.16667 14.414 6.77834 17.0257 10 17.0257ZM9.16667 7.02572H10.8333V12.0257H9.16667V7.02572ZM6.66667 1.19238H13.3333V2.85905H6.66667V1.19238Z" fill="white"/>
</svg>
