<svg width="140" height="34" viewBox="0 0 140 34" fill="none" xmlns="http://www.w3.org/2000/svg">
<path d="M24.106 5.96045H1.40039L7.83483 9.50596C10.0672 10.736 10.7571 13.62 9.32305 15.7271L1.40039 27.3686H9.18517L24.106 5.96045Z" fill="black"/>
<path d="M12.4288 27.3686H35.1344L28.7 23.8231C26.4677 22.593 25.7778 19.709 27.2118 17.6019L35.1344 5.96045H27.3497L12.4288 27.3686Z" fill="black"/>
<path d="M46.3915 27.0442H41.7632L47.9264 19.2281V18.9683L41.7632 11.223H46.3915L50.8309 16.8667H51.0907L55.3648 11.223H59.9931L53.8535 19.0391V19.2989L59.9931 27.0442H55.3648L50.949 21.3297H50.6892L46.3915 27.0442Z" fill="black"/>
<path d="M73.7297 27.0442H60.3406V11.223H73.7297V14.4108H63.8827V17.5042H73.3755V20.6685H63.8827V23.8564H73.7297V27.0442Z" fill="black"/>
<path d="M78.3997 27.0442H74.8576V11.223H83.5947C87.491 11.223 89.7107 12.9468 89.7107 15.9693C89.7107 18.5433 88.223 20.0782 85.2477 20.3615V20.5504C86.6645 20.9282 87.2076 21.6839 87.798 22.7937L90.0885 27.0442H85.9797L83.8073 22.9354C83.1697 21.7075 82.5793 21.3061 80.7374 21.3061H78.3997V27.0442ZM78.3997 14.4108V18.6377H83.5711C85.2477 18.6377 86.0033 18.1654 86.0033 16.5125C86.0033 14.9539 85.2477 14.4108 83.5711 14.4108H78.3997Z" fill="black"/>
<path d="M98.8819 27.2804C93.6396 27.2804 90.3809 24.0689 90.3809 19.1336C90.3809 14.1983 93.6396 10.9868 98.8819 10.9868C104.242 10.9868 107.477 14.1983 107.477 19.1336C107.477 24.0689 104.242 27.2804 98.8819 27.2804ZM98.8819 23.88C102.353 23.88 103.699 22.6521 103.699 19.1336C103.699 15.6151 102.353 14.3872 98.8819 14.3872C95.4107 14.3872 94.1355 15.6151 94.1355 19.1336C94.1355 22.6521 95.4107 23.88 98.8819 23.88Z" fill="black"/>
<path d="M112.092 27.0442H108.55V11.223H112.328L117.995 18.7085L120.168 22.0381H120.428L120.262 18.8502V11.223H123.804V27.0442H120.026L114.193 19.4878L112.186 16.5125H111.95L112.092 19.417V27.0442Z" fill="black"/>
<path d="M138.6 27.0442H125.211V11.223H138.6V14.4108H128.753V17.5042H138.246V20.6685H128.753V23.8564H138.6V27.0442Z" fill="black"/>
</svg>
