<svg width="18" height="19" viewBox="0 0 18 19" fill="none" xmlns="http://www.w3.org/2000/svg">
<g clip-path="url(#clip0_75_375)">
<path d="M16.3041 12.6695C16.1787 13.6223 15.7108 14.4968 14.9878 15.1298C14.2647 15.7628 13.336 16.111 12.375 16.1092C6.79219 16.1092 2.25001 11.567 2.25001 5.98423C2.24828 5.02327 2.59643 4.09453 3.22941 3.37149C3.8624 2.64844 4.73694 2.18054 5.68969 2.05517C5.93062 2.02575 6.1746 2.07504 6.38522 2.19568C6.59583 2.31632 6.76178 2.50184 6.85829 2.72455L8.34329 6.03978V6.04822C8.41718 6.21869 8.44769 6.40481 8.43211 6.58996C8.41653 6.7751 8.35533 6.95351 8.25399 7.10923C8.24133 7.12822 8.22797 7.1458 8.21391 7.16337L6.75001 8.89869C7.27665 9.96884 8.39602 11.0784 9.48024 11.6064L11.1916 10.1502C11.2085 10.1361 11.2261 10.123 11.2444 10.1109C11.4 10.0071 11.579 9.94375 11.7652 9.92656C11.9515 9.90937 12.1391 9.93889 12.311 10.0124L12.3202 10.0167L15.6326 11.501C15.8557 11.5971 16.0417 11.7629 16.1627 11.9736C16.2837 12.1842 16.3333 12.4284 16.3041 12.6695Z" fill="white" fill-opacity="0.5"/>
</g>
<defs>
<clipPath id="clip0_75_375">
<rect width="18" height="18" fill="white" transform="translate(0 0.359375)"/>
</clipPath>
</defs>
</svg>
