<svg width="18" height="19" viewBox="0 0 18 19" fill="none" xmlns="http://www.w3.org/2000/svg">
<g clip-path="url(#clip0_75_371)">
<path d="M16.8553 14.9844H15.7493V7.10935C15.7493 6.81098 15.6308 6.52483 15.4198 6.31385C15.2088 6.10288 14.9227 5.98435 14.6243 5.98435H11.5305C11.4559 5.98435 11.3844 6.01398 11.3317 6.06673C11.2789 6.11947 11.2493 6.19101 11.2493 6.2656V14.9844H10.1243V2.63818C10.1261 2.46295 10.0881 2.28959 10.0131 2.13122C9.93804 1.97286 9.82795 1.83364 9.69116 1.72412C9.50469 1.57873 9.27716 1.4958 9.04088 1.48709C8.80459 1.47838 8.57157 1.54434 8.37491 1.6756L2.74991 5.42185C2.5956 5.5248 2.46914 5.66431 2.3818 5.82796C2.29445 5.99161 2.24893 6.17432 2.24928 6.35982V14.9844H1.14327C0.997907 14.9822 0.857127 15.0352 0.749245 15.1326C0.641364 15.2301 0.574385 15.3648 0.561783 15.5096C0.556674 15.5865 0.56744 15.6637 0.593412 15.7363C0.619383 15.8089 0.660006 15.8754 0.712757 15.9316C0.765508 15.9879 0.829261 16.0327 0.900054 16.0633C0.970848 16.0938 1.04717 16.1095 1.12428 16.1094H16.8743C16.9514 16.1095 17.0277 16.0938 17.0985 16.0633C17.1693 16.0327 17.2331 15.9879 17.2858 15.9316C17.3386 15.8754 17.3792 15.8089 17.4052 15.7363C17.4311 15.6637 17.4419 15.5865 17.4368 15.5096C17.4242 15.3648 17.3572 15.2301 17.2493 15.1326C17.1414 15.0352 17.0007 14.9822 16.8553 14.9844ZM5.34303 13.2969C5.3432 13.374 5.32752 13.4503 5.29695 13.5211C5.26638 13.5919 5.22158 13.6556 5.16533 13.7084C5.10909 13.7611 5.04259 13.8017 4.96999 13.8277C4.89738 13.8537 4.82021 13.8645 4.74327 13.8594C4.59832 13.8467 4.46353 13.7797 4.36607 13.6716C4.2686 13.5636 4.21571 13.4226 4.21803 13.2772V12.1908C4.21605 12.0455 4.26909 11.9048 4.3665 11.797C4.46391 11.6891 4.5985 11.6221 4.74327 11.6094C4.82021 11.6042 4.89738 11.615 4.96999 11.641C5.04259 11.667 5.10909 11.7076 5.16533 11.7603C5.22158 11.8131 5.26638 11.8768 5.29695 11.9476C5.32752 12.0184 5.3432 12.0947 5.34303 12.1719V13.2969ZM5.34303 9.35935C5.3432 9.43646 5.32752 9.51278 5.29695 9.58358C5.26638 9.65437 5.22158 9.71812 5.16533 9.77088C5.10909 9.82363 5.04259 9.86425 4.96999 9.89022C4.89738 9.91619 4.82021 9.92696 4.74327 9.92185C4.59838 9.90908 4.46369 9.84195 4.36626 9.73396C4.26883 9.62596 4.21587 9.4851 4.21803 9.33966V8.25333C4.21605 8.10802 4.26909 7.96733 4.3665 7.85948C4.46391 7.75164 4.5985 7.68461 4.74327 7.67185C4.82021 7.66674 4.89738 7.67751 4.96999 7.70348C5.04259 7.72945 5.10909 7.77007 5.16533 7.82282C5.22158 7.87558 5.26638 7.93933 5.29695 8.01012C5.32752 8.08091 5.3432 8.15724 5.34303 8.23435V9.35935ZM8.15553 13.2969C8.1557 13.374 8.14002 13.4503 8.10945 13.5211C8.07888 13.5919 8.03408 13.6556 7.97783 13.7084C7.92159 13.7611 7.85509 13.8017 7.78249 13.8277C7.70988 13.8537 7.63271 13.8645 7.55577 13.8594C7.41106 13.8468 7.27648 13.7799 7.17905 13.6721C7.08162 13.5644 7.02857 13.4238 7.03053 13.2786V12.1908C7.02873 12.0456 7.08185 11.9051 7.17924 11.7974C7.27664 11.6897 7.41112 11.6228 7.55577 11.6101C7.63271 11.6049 7.70988 11.6157 7.78249 11.6417C7.85509 11.6677 7.92159 11.7083 7.97783 11.761C8.03408 11.8138 8.07888 11.8775 8.10945 11.9483C8.14002 12.0191 8.1557 12.0954 8.15553 12.1726V13.2969ZM8.15553 9.35935C8.1557 9.43646 8.14002 9.51278 8.10945 9.58358C8.07888 9.65437 8.03408 9.71812 7.97783 9.77088C7.92159 9.82363 7.85509 9.86425 7.78249 9.89022C7.70988 9.91619 7.63271 9.92696 7.55577 9.92185C7.41112 9.9091 7.27664 9.84217 7.17924 9.73447C7.08185 9.62678 7.02873 9.48626 7.03053 9.34107V8.25333C7.02873 8.10814 7.08185 7.96763 7.17924 7.85993C7.27664 7.75223 7.41112 7.68531 7.55577 7.67255C7.63271 7.66744 7.70988 7.67821 7.78249 7.70418C7.85509 7.73015 7.92159 7.77078 7.97783 7.82353C8.03408 7.87628 8.07888 7.94003 8.10945 8.01082C8.14002 8.08162 8.1557 8.15794 8.15553 8.23505V9.35935Z" fill="white" fill-opacity="0.5"/>
</g>
<defs>
<clipPath id="clip0_75_371">
<rect width="18" height="18" fill="white" transform="translate(0 0.359375)"/>
</clipPath>
</defs>
</svg>
