<svg width="20" height="21" viewBox="0 0 20 21" fill="none" xmlns="http://www.w3.org/2000/svg">
<path d="M7.50033 1.19238V2.85905H12.5003V1.19238H14.167V2.85905H17.5003C17.9606 2.85905 18.3337 3.23215 18.3337 3.69238V17.0257C18.3337 17.486 17.9606 17.859 17.5003 17.859H2.50033C2.04009 17.859 1.66699 17.486 1.66699 17.0257V3.69238C1.66699 3.23215 2.04009 2.85905 2.50033 2.85905H5.83366V1.19238H7.50033ZM16.667 9.52572H3.33366V16.1924H16.667V9.52572ZM6.66699 11.1924V12.859H5.00033V11.1924H6.66699ZM10.8337 11.1924V12.859H9.16699V11.1924H10.8337ZM15.0003 11.1924V12.859H13.3337V11.1924H15.0003ZM5.83366 4.52572H3.33366V7.85905H16.667V4.52572H14.167V6.19238H12.5003V4.52572H7.50033V6.19238H5.83366V4.52572Z" fill="white"/>
</svg>
