<svg width="140" height="34" viewBox="0 0 140 34" fill="none" xmlns="http://www.w3.org/2000/svg">
<g clip-path="url(#clip0_59_333)">
<path d="M15.6991 -2.44824H8.39844V16.6555C8.39844 17.0112 8.42861 17.3709 8.52062 17.7146C10.3146 24.4152 19.2358 22.9111 20.5175 21.0597L26.7639 12.1274C27.4501 11.1461 27.8181 9.97768 27.8181 8.78031V4.56035H20.5175V19.0886C20.5175 20.4191 19.4388 21.4978 18.1083 21.4978C16.7777 21.4978 15.6991 20.4191 15.6991 19.0886V-2.44824Z" fill="#151413"/>
<path d="M32.6369 35.4829L39.9375 35.4829L39.9375 16.3792C39.9375 16.0234 39.9073 15.6638 39.8153 15.3201C38.0213 8.61949 29.1002 10.1236 27.8185 11.9749L21.5721 20.9073C20.8859 21.8885 20.5179 23.057 20.5179 24.2544L20.5179 28.4743L27.8185 28.4743L27.8185 13.9461C27.8185 12.6155 28.8971 11.5369 30.2277 11.5369C31.5583 11.5369 32.6369 12.6155 32.6369 13.9461L32.6369 35.4829Z" fill="#151413"/>
</g>
<path d="M54.8551 23.8543C56.9803 23.8543 58.0575 21.962 58.0575 19.7203V13.0535H62.1915V20.2152C62.1915 24.4366 59.6878 27.8427 54.8551 27.8427C50.0515 27.8427 47.5479 24.4366 47.5479 20.2152V13.0535H51.6818V19.7494C51.6818 21.962 52.7299 23.8543 54.8551 23.8543Z" fill="#151413"/>
<path d="M71.5476 16.6635C69.2185 16.6635 68.1705 18.5558 68.1705 20.7684V27.4643H64.0365V20.2735C64.0365 16.0813 66.5111 12.646 71.5476 12.646C76.584 12.646 79.1168 16.0521 79.1168 20.2735V27.4643H74.9828V20.7684C74.9828 18.5558 73.9057 16.6635 71.5476 16.6635Z" fill="#151413"/>
<path d="M83.7667 10.8992C82.3693 10.8992 81.2048 9.76382 81.2048 8.3373C81.2048 6.9399 82.3693 5.77539 83.7667 5.77539C85.1641 5.77539 86.2995 6.9399 86.2995 8.3373C86.2995 9.76382 85.1641 10.8992 83.7667 10.8992ZM81.6997 13.0535H85.8337V27.4643H81.6997V13.0535Z" fill="#151413"/>
<path d="M95.4344 27.8427C91.0967 27.8719 87.6905 24.4075 87.6905 20.2444C87.6905 16.0521 91.0967 12.6169 95.4344 12.646C98.2001 12.6751 100.762 13.9269 102.072 16.7217L98.6659 18.5849C98.0255 17.3331 96.861 16.5471 95.4344 16.5471C93.3675 16.5471 91.8245 18.2065 91.8245 20.2444C91.8245 22.2822 93.3675 23.9417 95.4344 23.9417C96.861 23.9417 98.0255 23.1556 98.6659 21.9038L102.072 23.767C100.762 26.5618 98.2001 27.8136 95.4344 27.8427Z" fill="#151413"/>
<path d="M110.215 27.8427C105.732 27.8427 102.355 24.7277 102.355 20.1279C102.355 15.9648 105.383 12.5295 109.837 12.5295C114.407 12.5295 117.057 15.9066 117.057 19.8368V21.0595H106.343C106.634 22.9809 108.119 24.2619 110.186 24.2619C111.758 24.2619 113.068 23.505 113.738 22.1658L116.911 23.767C115.659 26.358 113.272 27.8427 110.215 27.8427ZM106.518 18.7596H112.952C112.777 17.2749 111.554 16.1395 109.808 16.1395C108.003 16.1395 106.809 17.304 106.518 18.7596Z" fill="#151413"/>
<path d="M119.211 6.41587H123.345V27.4643H119.211V6.41587Z" fill="#151413"/>
<path d="M126.511 6.41587H130.645V27.4643H126.511V6.41587Z" fill="#151413"/>
<defs>
<clipPath id="clip0_59_333">
<rect width="31.5387" height="23.8" fill="white" transform="translate(8.39941 4.56104)"/>
</clipPath>
</defs>
</svg>
