<svg width="132" height="29" viewBox="0 0 132 29" fill="none" xmlns="http://www.w3.org/2000/svg">
<path d="M43.76 22.3613H41.56V8.00133H50.28V9.92133H43.76V14.6013H49.32V16.5213H43.76V22.3613ZM54.3189 22.3613H52.2789V8.00133H54.3189V22.3613ZM61.5627 22.5613C58.5627 22.5613 56.3627 20.2013 56.3627 17.0613C56.3627 13.9213 58.5627 11.5613 61.5627 11.5613C64.5627 11.5613 66.7627 13.9213 66.7627 17.0613C66.7627 20.2013 64.5627 22.5613 61.5627 22.5613ZM61.5627 20.7813C63.3027 20.7813 64.6827 19.3813 64.6827 17.0613C64.6827 14.7413 63.3027 13.3613 61.5627 13.3613C59.8227 13.3613 58.4627 14.7413 58.4627 17.0613C58.4627 19.3813 59.8227 20.7813 61.5627 20.7813ZM77.3475 22.3613L74.9475 14.4813L72.5275 22.3613H70.4875L67.4275 11.7613H69.4075L71.5475 19.4813L73.9475 11.7613H75.9475L78.3075 19.5013L80.4475 11.7613H82.4475L79.3675 22.3613H77.3475ZM86.1153 22.3613H84.0953V11.7613H85.9753V13.5213C86.6953 12.3013 87.8353 11.5613 89.2953 11.5613C90.8553 11.5613 92.0353 12.3613 92.5153 13.7613C93.2553 12.4013 94.4753 11.5613 96.0953 11.5613C98.2753 11.5613 99.6753 12.9813 99.6753 15.5013V22.3613H97.6553V16.1413C97.6553 14.3813 96.8753 13.3413 95.3953 13.3413C94.0153 13.3413 92.8953 14.5013 92.8953 16.2813V22.3613H90.8753V16.1413C90.8753 14.3813 90.0953 13.3413 88.6153 13.3413C87.2153 13.3413 86.1153 14.5013 86.1153 16.2813V22.3613ZM106.737 22.5613C103.677 22.5613 101.617 20.3413 101.617 17.0013C101.617 13.8613 103.757 11.5613 106.677 11.5613C109.837 11.5613 111.937 14.1213 111.577 17.5613H103.677C103.837 19.7213 104.917 20.9813 106.697 20.9813C108.197 20.9813 109.237 20.1613 109.577 18.7813H111.577C111.057 21.1413 109.237 22.5613 106.737 22.5613ZM106.637 13.0813C105.017 13.0813 103.917 14.2413 103.697 16.2213H109.437C109.337 14.2613 108.277 13.0813 106.637 13.0813ZM115.744 16.3813V22.3613H113.724V11.7613H115.604V13.5213C116.324 12.3413 117.524 11.5613 118.984 11.5613C121.164 11.5613 122.604 12.9613 122.604 15.5013V22.3613H120.584V16.1813C120.584 14.3613 119.784 13.3413 118.284 13.3413C116.904 13.3413 115.744 14.5013 115.744 16.3813ZM131.228 20.4013V22.1813C130.608 22.4613 130.068 22.5613 129.428 22.5613C127.468 22.5613 126.108 21.5013 126.108 19.1613V13.4813H123.768V11.7613H126.108V8.62133H128.128V11.7613H131.328V13.4813H128.128V18.7013C128.128 20.1613 128.828 20.6813 129.908 20.6813C130.388 20.6813 130.808 20.6013 131.228 20.4013Z" fill="white"/>
<path d="M19.3334 25.3597C19.3334 23.2259 18.9177 21.113 18.1101 19.1417C17.3024 17.1704 16.1187 15.3791 14.6264 13.8704C13.1341 12.3616 11.3625 11.1647 9.41268 10.3482C7.46289 9.5316 5.37313 9.11133 3.2627 9.11133V25.3597H19.3334Z" fill="white"/>
<path d="M25.9992 18.6144C25.9992 16.5145 25.5901 14.4352 24.7953 12.4952C24.0005 10.5551 22.8355 8.79236 21.3669 7.30751C19.8983 5.82266 18.1548 4.64481 16.236 3.84122C14.3171 3.03763 12.2605 2.62402 10.1836 2.62402V18.6144H25.9992Z" fill="white"/>
<path d="M20.0683 18.6151C20.0683 17.3027 19.8127 16.0031 19.3159 14.7906C18.8192 13.578 18.0911 12.4763 17.1732 11.5483C16.2553 10.6202 15.1656 9.88409 13.9663 9.38184C12.767 8.8796 11.4817 8.62109 10.1836 8.62109V18.6151H20.0683Z" fill="black"/>
</svg>
