<svg width="108" height="29" viewBox="0 0 108 29" fill="none" xmlns="http://www.w3.org/2000/svg">
<path d="M51.68 22.3613H40.78V20.6813L48.66 9.90133H40.94V8.00133H51.4V9.72133L43.5 20.4613H51.68V22.3613ZM57.9866 22.5613C54.9266 22.5613 52.8666 20.3413 52.8666 17.0013C52.8666 13.8613 55.0066 11.5613 57.9266 11.5613C61.0866 11.5613 63.1866 14.1213 62.8266 17.5613H54.9266C55.0866 19.7213 56.1666 20.9813 57.9466 20.9813C59.4466 20.9813 60.4866 20.1613 60.8266 18.7813H62.8266C62.3066 21.1413 60.4866 22.5613 57.9866 22.5613ZM57.8866 13.0813C56.2666 13.0813 55.1666 14.2413 54.9466 16.2213H60.6866C60.5866 14.2613 59.5266 13.0813 57.8866 13.0813ZM65.625 22.3613H63.345L67.105 16.9413L63.585 11.7613H65.925L68.545 15.7613L71.165 11.7613H73.345L69.865 17.0013L73.585 22.3613H71.265L68.425 18.1413L65.625 22.3613ZM78.9394 22.5813C76.0394 22.5813 73.9994 20.3013 73.9994 17.0613C73.9994 13.8613 76.0794 11.5613 78.9394 11.5613C81.5594 11.5613 83.4594 13.3013 83.8394 16.0613H81.7194C81.4994 14.3613 80.4394 13.3413 78.9594 13.3413C77.2194 13.3413 76.0794 14.8213 76.0794 17.0613C76.0794 19.3213 77.2194 20.7813 78.9594 20.7813C80.4594 20.7813 81.4994 19.7813 81.7394 18.0613H83.8394C83.4794 20.8613 81.5994 22.5813 78.9394 22.5813ZM90.215 22.5613C87.215 22.5613 85.015 20.2013 85.015 17.0613C85.015 13.9213 87.215 11.5613 90.215 11.5613C93.215 11.5613 95.415 13.9213 95.415 17.0613C95.415 20.2013 93.215 22.5613 90.215 22.5613ZM90.215 20.7813C91.955 20.7813 93.335 19.3813 93.335 17.0613C93.335 14.7413 91.955 13.3613 90.215 13.3613C88.475 13.3613 87.115 14.7413 87.115 17.0613C87.115 19.3813 88.475 20.7813 90.215 20.7813ZM99.4942 16.3813V22.3613H97.4742V11.7613H99.3542V13.5213C100.074 12.3413 101.274 11.5613 102.734 11.5613C104.914 11.5613 106.354 12.9613 106.354 15.5013V22.3613H104.334V16.1813C104.334 14.3613 103.534 13.3413 102.034 13.3413C100.654 13.3413 99.4942 14.5013 99.4942 16.3813Z" fill="white"/>
<path d="M21.9037 7.36133C22.196 7.3613 22.3958 7.65644 22.2873 7.92779L19.5997 14.6488C19.515 14.8606 19.2746 14.9637 19.0627 14.879L2.2602 8.15987C1.83788 7.99099 1.9587 7.36327 2.41353 7.36323L21.9037 7.36133Z" fill="white"/>
<path d="M6.09627 22.1291C5.80403 22.1292 5.60417 21.834 5.71268 21.5627L8.40033 14.8417C8.48504 14.6298 8.72543 14.5268 8.93726 14.6115L25.7398 21.3306C26.1621 21.4995 26.0413 22.1272 25.5865 22.1272L6.09627 22.1291Z" fill="white"/>
</svg>
