<svg width="115" height="24" viewBox="0 0 115 24" fill="none" xmlns="http://www.w3.org/2000/svg">
<path d="M27.7373 20.4273V1.91211H36.5935C38.4925 1.91211 40.0463 2.38686 41.2547 3.33636C42.4632 4.26859 43.0674 5.572 43.0674 7.24657C43.0674 9.49084 41.997 10.9841 39.8564 11.7265V11.8042C41.4101 12.3221 42.3078 13.4528 42.5495 15.1965C42.6531 15.8007 42.7221 16.5517 42.7566 17.4494C42.8084 18.3298 42.8689 18.9945 42.9379 19.4433C43.007 19.8749 43.1364 20.1252 43.3263 20.1943V20.4273H38.8723C38.7342 20.341 38.622 20.0907 38.5357 19.6764C38.4666 19.262 38.4062 18.6751 38.3544 17.9155C38.3026 17.1559 38.2422 16.5603 38.1732 16.1287C37.9315 14.3678 36.9043 13.4874 35.0916 13.4874H32.3208V20.4273H27.7373ZM32.3208 10.0951H35.7649C36.6626 10.0951 37.3445 9.89653 37.8106 9.49947C38.2767 9.1024 38.5098 8.54997 38.5098 7.84216C38.5098 7.15162 38.2854 6.59918 37.8365 6.18485C37.3877 5.75326 36.7316 5.53747 35.8685 5.53747H32.3208V10.0951Z" fill="black"/>
<path d="M49.9042 20.8158C47.7635 20.8158 46.0458 20.1597 44.751 18.8477C43.4735 17.5184 42.8347 15.8266 42.8347 13.7722C42.8347 11.7696 43.4649 10.1037 44.7251 8.7744C46.0026 7.4451 47.6427 6.78045 49.6452 6.78045C51.4579 6.78045 52.9685 7.33288 54.1769 8.43776C55.7652 9.8879 56.542 12.0372 56.5075 14.8857H46.978C47.1161 15.8007 47.4355 16.5171 47.9361 17.035C48.4368 17.5357 49.1101 17.786 49.956 17.786C51.0436 17.786 51.7773 17.3458 52.1571 16.4653H56.2745C55.9637 17.7428 55.2214 18.7873 54.0475 19.5987C52.8908 20.4101 51.5097 20.8158 49.9042 20.8158ZM47.0039 12.3739H52.2348C52.1657 11.5797 51.8981 10.9496 51.432 10.4835C50.9832 10.0174 50.4135 9.78432 49.7229 9.78432C48.221 9.78432 47.3146 10.6475 47.0039 12.3739Z" fill="black"/>
<path d="M59.7424 20.4273L55.1589 7.16888H59.5094L61.322 13.1507L62.0471 15.818H62.0989C62.3233 14.9202 62.565 14.0312 62.824 13.1507L64.6626 7.16888H68.8835L64.3 20.4273H59.7424Z" fill="black"/>
<path d="M74.4998 20.8158C72.3591 20.8158 70.6414 20.1597 69.3466 18.8477C68.0691 17.5184 67.4303 15.8266 67.4303 13.7722C67.4303 11.7696 68.0604 10.1037 69.3207 8.7744C70.5982 7.4451 72.2382 6.78045 74.2408 6.78045C76.0535 6.78045 77.5641 7.33288 78.7725 8.43776C80.3608 9.8879 81.1376 12.0372 81.1031 14.8857H71.5736C71.7117 15.8007 72.0311 16.5171 72.5317 17.035C73.0324 17.5357 73.7057 17.786 74.5516 17.786C75.6392 17.786 76.3729 17.3458 76.7527 16.4653H80.87C80.5593 17.7428 79.817 18.7873 78.643 19.5987C77.4864 20.4101 76.1053 20.8158 74.4998 20.8158ZM71.5995 12.3739H76.8304C76.7613 11.5797 76.4937 10.9496 76.0276 10.4835C75.5788 10.0174 75.0091 9.78432 74.3185 9.78432C72.8166 9.78432 71.9102 10.6475 71.5995 12.3739Z" fill="black"/>
<path d="M81.2215 20.4273V7.16888H85.2611V9.24051H85.3388C86.2365 7.72131 87.445 6.96172 88.9642 6.96172C89.3612 6.96172 89.6375 6.99624 89.7928 7.0653V10.6907H89.6893C88.3772 10.5008 87.3414 10.7338 86.5818 11.3898C85.8222 12.0286 85.4424 13.0558 85.4424 14.4714V20.4273H81.2215Z" fill="black"/>
<path d="M95.485 20.8417C93.5515 20.8417 92.0064 20.4273 90.8497 19.5987C89.7103 18.7528 89.1061 17.5961 89.037 16.1287H93.0249C93.1803 17.4407 93.9917 18.0967 95.4591 18.0967C96.0978 18.0967 96.5985 17.9845 96.961 17.7601C97.3408 17.5184 97.5307 17.1904 97.5307 16.7761C97.5307 16.638 97.5135 16.5171 97.4789 16.4135C97.4444 16.31 97.384 16.215 97.2977 16.1287C97.2113 16.0424 97.125 15.9647 97.0387 15.8956C96.9697 15.8266 96.8574 15.7662 96.7021 15.7144C96.5467 15.6453 96.4086 15.5935 96.2877 15.559C96.1842 15.5245 96.0201 15.4899 95.7957 15.4554C95.5886 15.4036 95.4246 15.3691 95.3037 15.3518C95.1829 15.3173 94.993 15.2828 94.734 15.2483C94.4751 15.1965 94.2852 15.1619 94.1643 15.1447C93.6119 15.0584 93.1458 14.972 92.766 14.8857C92.3862 14.7821 91.9632 14.6268 91.4971 14.4196C91.0482 14.2124 90.6771 13.9794 90.3836 13.7204C90.1074 13.4442 89.8743 13.0817 89.6844 12.6328C89.4945 12.1667 89.3996 11.6315 89.3996 11.0273C89.3996 9.68074 89.9434 8.63629 91.031 7.89395C92.1186 7.15162 93.4824 6.78045 95.1224 6.78045C96.9697 6.78045 98.4025 7.16025 99.4211 7.91985C100.44 8.66218 101.001 9.698 101.104 11.0273H97.22C97.0819 9.99148 96.3741 9.47357 95.0965 9.47357C94.5441 9.47357 94.0953 9.57715 93.75 9.78432C93.422 9.99148 93.258 10.2936 93.258 10.6907C93.258 10.7942 93.2752 10.8892 93.3098 10.9755C93.3443 11.0618 93.3961 11.1395 93.4651 11.2086C93.5514 11.2776 93.6291 11.338 93.6982 11.3898C93.7845 11.4416 93.8967 11.4934 94.0348 11.5452C94.1729 11.597 94.2938 11.6402 94.3974 11.6747C94.5182 11.7092 94.6736 11.7437 94.8635 11.7783C95.0706 11.8128 95.2347 11.8473 95.3555 11.8818C95.4936 11.8991 95.6749 11.9336 95.8993 11.9854C96.1237 12.02 96.305 12.0459 96.4431 12.0631C97.0301 12.1667 97.5135 12.2616 97.8932 12.348C98.273 12.4343 98.7133 12.5897 99.2139 12.8141C99.7318 13.0212 100.138 13.2716 100.431 13.565C100.724 13.8413 100.975 14.2297 101.182 14.7303C101.406 15.2137 101.519 15.7834 101.519 16.4394C101.519 17.8551 100.958 18.9427 99.8354 19.7023C98.7305 20.4619 97.2804 20.8417 95.485 20.8417Z" fill="black"/>
<path d="M108.194 20.8158C106.053 20.8158 104.336 20.1597 103.041 18.8477C101.763 17.5184 101.125 15.8266 101.125 13.7722C101.125 11.7696 101.755 10.1037 103.015 8.7744C104.293 7.4451 105.933 6.78045 107.935 6.78045C109.748 6.78045 111.258 7.33288 112.467 8.43776C114.055 9.8879 114.832 12.0372 114.797 14.8857H105.268C105.406 15.8007 105.725 16.5171 106.226 17.035C106.727 17.5357 107.4 17.786 108.246 17.786C109.334 17.786 110.067 17.3458 110.447 16.4653H114.564C114.254 17.7428 113.511 18.7873 112.337 19.5987C111.181 20.4101 109.8 20.8158 108.194 20.8158ZM105.294 12.3739H110.525C110.456 11.5797 110.188 10.9496 109.722 10.4835C109.273 10.0174 108.703 9.78432 108.013 9.78432C106.511 9.78432 105.605 10.6475 105.294 12.3739Z" fill="black"/>
<path d="M7.87782 23.8559H0.300081C0.134351 23.8559 0 23.7216 0 23.5559V1.92248C0 1.76791 0.117409 1.63863 0.271261 1.62378L16.8756 0.0216093C17.0107 0.00857293 17.1377 0.0878472 17.1854 0.214937L22.8613 15.3508C22.9152 15.4946 22.8519 15.6558 22.7145 15.7245L17.2199 18.4719C17.0729 18.5454 17.0123 18.7235 17.0842 18.8714L19.1007 23.0231C19.2278 23.2848 18.9455 23.5561 18.6891 23.4187L7.42545 17.3846C7.20848 17.2684 7.21601 16.9548 7.43831 16.8491L15.5857 12.9757C15.7942 12.8766 15.8174 12.5891 15.6275 12.4579L4.53144 4.78651C4.30687 4.63125 4.00847 4.83221 4.06791 5.09868L8.1707 23.4905C8.21252 23.678 8.0699 23.8559 7.87782 23.8559Z" fill="black"/>
</svg>
