<svg width="107" height="29" viewBox="0 0 107 29" fill="none" xmlns="http://www.w3.org/2000/svg">
<path d="M43.12 22.3613H40.56L45.2 15.0013L40.98 8.00133H43.52L46.82 13.6013L50.24 8.00133H52.68L48.38 15.0813L52.94 22.3613H50.36L46.76 16.4613L43.12 22.3613ZM58.553 22.5613C55.493 22.5613 53.433 20.3413 53.433 17.0013C53.433 13.8613 55.573 11.5613 58.493 11.5613C61.653 11.5613 63.753 14.1213 63.393 17.5613H55.493C55.653 19.7213 56.733 20.9813 58.513 20.9813C60.013 20.9813 61.053 20.1613 61.393 18.7813H63.393C62.873 21.1413 61.053 22.5613 58.553 22.5613ZM58.453 13.0813C56.833 13.0813 55.733 14.2413 55.513 16.2213H61.253C61.153 14.2613 60.093 13.0813 58.453 13.0813ZM67.5606 16.9413V22.3613H65.5406V11.7613H67.4206V14.0013C68.1606 12.5413 69.7606 11.6213 71.5006 11.6213V13.7213C69.2206 13.6013 67.5606 14.6013 67.5606 16.9413ZM77.5002 22.5613C74.5002 22.5613 72.3002 20.2013 72.3002 17.0613C72.3002 13.9213 74.5002 11.5613 77.5002 11.5613C80.5002 11.5613 82.7002 13.9213 82.7002 17.0613C82.7002 20.2013 80.5002 22.5613 77.5002 22.5613ZM77.5002 20.7813C79.2402 20.7813 80.6202 19.3813 80.6202 17.0613C80.6202 14.7413 79.2402 13.3613 77.5002 13.3613C75.7602 13.3613 74.4002 14.7413 74.4002 17.0613C74.4002 19.3813 75.7602 20.7813 77.5002 20.7813ZM86.7794 16.3813V22.3613H84.7594V11.7613H86.6394V13.5213C87.3594 12.3413 88.5594 11.5613 90.0194 11.5613C92.1994 11.5613 93.6394 12.9613 93.6394 15.5013V22.3613H91.6194V16.1813C91.6194 14.3613 90.8194 13.3413 89.3194 13.3413C87.9394 13.3413 86.7794 14.5013 86.7794 16.3813ZM100.682 22.5613C97.6219 22.5613 95.5619 20.3413 95.5619 17.0013C95.5619 13.8613 97.7019 11.5613 100.622 11.5613C103.782 11.5613 105.882 14.1213 105.522 17.5613H97.6219C97.7819 19.7213 98.8619 20.9813 100.642 20.9813C102.142 20.9813 103.182 20.1613 103.522 18.7813H105.522C105.002 21.1413 103.182 22.5613 100.682 22.5613ZM100.582 13.0813C98.9619 13.0813 97.8619 14.2413 97.6419 16.2213H103.382C103.282 14.2613 102.222 13.0813 100.582 13.0813Z" fill="white"/>
<path d="M18.1538 6.72656H2L6.57776 9.249C8.16595 10.1241 8.65678 12.1759 7.63656 13.675L2 21.9573H7.53846L18.1538 6.72656Z" fill="white"/>
<path d="M9.84615 21.9573H26L21.4222 19.4349C19.834 18.5598 19.3432 16.508 20.3634 15.0088L26 6.72656H20.4615L9.84615 21.9573Z" fill="white"/>
</svg>
