<svg width="24" height="24" viewBox="0 0 24 24" fill="none" xmlns="http://www.w3.org/2000/svg">
  <path d="M19.875 4.5C18.1875 3.5625 16.4062 2.90625 14.625 2.625C14.25 3.375 13.875 4.3125 13.6875 5.0625C12.1875 4.875 10.6875 4.875 9.1875 5.0625C9 4.3125 8.625 3.375 8.25 2.625C6.46875 2.90625 4.6875 3.5625 3 4.5C0.9375 8.4375 0.375 12.375 0.75 16.3125C2.8125 18.5625 5.625 20.25 8.8125 21C9.5625 19.875 10.125 18.625 10.5 17.25C9.5625 16.875 8.8125 16.3125 8.0625 15.5625C7.6875 15.1875 7.5 14.8125 7.3125 14.4375C7.125 14.0625 7.3125 13.875 7.875 14.0625C9.1875 14.8125 10.5 15.1875 11.8125 15.1875C13.125 15.1875 14.4375 14.8125 15.75 14.0625C16.3125 13.875 16.5 14.0625 16.3125 14.4375C16.125 14.8125 15.9375 15.1875 15.5625 15.5625C14.8125 16.3125 14.0625 16.875 13.125 17.25C13.5 18.625 14.0625 19.875 14.8125 21C18 20.25 20.8125 18.5625 22.875 16.3125C23.4375 11.8125 22.3125 7.875 19.875 4.5ZM8.0625 14.4375C7.125 14.4375 6.375 13.5 6.375 12.375C6.375 11.25 7.125 10.3125 8.0625 10.3125C9 10.3125 9.75 11.25 9.75 12.375C9.75 13.5 9 14.4375 8.0625 14.4375ZM15.9375 14.4375C15 14.4375 14.25 13.5 14.25 12.375C14.25 11.25 15 10.3125 15.9375 10.3125C16.875 10.3125 17.625 11.25 17.625 12.375C17.625 13.5 16.875 14.4375 15.9375 14.4375Z" fill="white"/>
</svg>
