<svg width="24" height="25" viewBox="0 0 24 25" fill="none" xmlns="http://www.w3.org/2000/svg">
<path d="M6.94048 5.36077C6.94011 6.17508 6.44608 6.90786 5.69134 7.21357C4.9366 7.51929 4.07187 7.33689 3.5049 6.75239C2.93793 6.16788 2.78195 5.29799 3.1105 4.55291C3.43906 3.80783 4.18654 3.33634 5.00048 3.36077C6.08155 3.39322 6.94097 4.27921 6.94048 5.36077ZM7.00048 8.84077H3.00048V21.3607H7.00048V8.84077ZM13.3205 8.84077H9.34048V21.3607H13.2805V14.7907C13.2805 11.1307 18.0505 10.7907 18.0505 14.7907V21.3607H22.0005V13.4307C22.0005 7.26077 14.9405 7.49077 13.2805 10.5207L13.3205 8.84077Z" fill="black"/>
</svg>
