<svg width="82" height="18" viewBox="0 0 82 18" fill="none" xmlns="http://www.w3.org/2000/svg">
<path d="M19.8125 14.9527V1.72754H26.1384C27.4948 1.72754 28.6046 2.06665 29.4678 2.74486C30.331 3.41074 30.7626 4.34174 30.7626 5.53787C30.7626 7.14092 29.998 8.20756 28.469 8.7378V8.79329C29.5788 9.16322 30.22 9.97091 30.3926 11.2164C30.4666 11.648 30.5159 12.1844 30.5406 12.8256C30.5776 13.4545 30.6208 13.9292 30.6701 14.2498C30.7194 14.5581 30.8119 14.7369 30.9475 14.7862V14.9527H27.7661C27.6674 14.891 27.5873 14.7122 27.5256 14.4163C27.4763 14.1203 27.4332 13.7011 27.3962 13.1585C27.3592 12.6159 27.316 12.1905 27.2667 11.8822C27.094 10.6245 26.3603 9.99558 25.0656 9.99558H23.0864V14.9527H19.8125ZM23.0864 7.57251H25.5465C26.1877 7.57251 26.6748 7.4307 27.0077 7.14708C27.3407 6.86346 27.5071 6.46887 27.5071 5.96329C27.5071 5.47004 27.3468 5.07545 27.0262 4.7795C26.7056 4.47122 26.237 4.31708 25.6205 4.31708H23.0864V7.57251Z" fill="black"/>
<path d="M35.646 15.2302C34.1169 15.2302 32.89 14.7616 31.9651 13.8244C31.0526 12.8749 30.5964 11.6664 30.5964 10.199C30.5964 8.76863 31.0465 7.57867 31.9466 6.62917C32.8591 5.67967 34.0306 5.20492 35.461 5.20492C36.7558 5.20492 37.8348 5.59952 38.6979 6.38871C39.8324 7.42453 40.3873 8.95976 40.3627 10.9944H33.5559C33.6545 11.648 33.8826 12.1597 34.2402 12.5296C34.5978 12.8872 35.0788 13.066 35.683 13.066C36.4598 13.066 36.9839 12.7516 37.2552 12.1227H40.1962C39.9742 13.0352 39.444 13.7812 38.6055 14.3608C37.7793 14.9404 36.7928 15.2302 35.646 15.2302ZM33.5744 9.20022H37.3107C37.2614 8.63298 37.0702 8.1829 36.7373 7.84996C36.4167 7.51702 36.0098 7.35054 35.5165 7.35054C34.4437 7.35054 33.7963 7.9671 33.5744 9.20022Z" fill="black"/>
<path d="M42.6733 14.9527L39.3994 5.48238H42.5068L43.8016 9.75512L44.3195 11.6603H44.3565C44.5168 11.0191 44.6894 10.384 44.8744 9.75512L46.1877 5.48238H49.2026L45.9287 14.9527H42.6733Z" fill="black"/>
<path d="M53.2143 15.2302C51.6852 15.2302 50.4583 14.7616 49.5334 13.8244C48.6209 12.8749 48.1647 11.6664 48.1647 10.199C48.1647 8.76863 48.6147 7.57867 49.5149 6.62917C50.4274 5.67967 51.5989 5.20492 53.0293 5.20492C54.3241 5.20492 55.403 5.59952 56.2662 6.38871C57.4007 7.42453 57.9556 8.95976 57.9309 10.9944H51.1241C51.2228 11.648 51.4509 12.1597 51.8085 12.5296C52.1661 12.8872 52.647 13.066 53.2513 13.066C54.0281 13.066 54.5522 12.7516 54.8235 12.1227H57.7645C57.5425 13.0352 57.0123 13.7812 56.1737 14.3608C55.3476 14.9404 54.3611 15.2302 53.2143 15.2302ZM51.1426 9.20022H54.879C54.8296 8.63298 54.6385 8.1829 54.3056 7.84996C53.985 7.51702 53.578 7.35054 53.0848 7.35054C52.012 7.35054 51.3646 7.9671 51.1426 9.20022Z" fill="black"/>
<path d="M58.0155 14.9527V5.48238H60.901V6.96211H60.9564C61.5977 5.87697 62.4608 5.3344 63.546 5.3344C63.8296 5.3344 64.0269 5.35906 64.1379 5.40839V7.99793H64.0639C63.1267 7.86229 62.3869 8.02876 61.8443 8.49734C61.3017 8.95359 61.0304 9.6873 61.0304 10.6985V14.9527H58.0155Z" fill="black"/>
<path d="M68.2037 15.2486C66.8226 15.2486 65.719 14.9527 64.8928 14.3608C64.0789 13.7566 63.6473 12.9304 63.598 11.8822H66.4465C66.5575 12.8194 67.1371 13.288 68.1852 13.288C68.6414 13.288 68.9991 13.2078 69.258 13.0475C69.5293 12.8749 69.6649 12.6406 69.6649 12.3447C69.6649 12.246 69.6526 12.1597 69.6279 12.0857C69.6033 12.0117 69.5601 11.9439 69.4985 11.8822C69.4368 11.8206 69.3752 11.7651 69.3135 11.7158C69.2642 11.6664 69.184 11.6233 69.073 11.5863C68.9621 11.537 68.8634 11.5 68.7771 11.4753C68.7031 11.4507 68.586 11.426 68.4257 11.4013C68.2777 11.3643 68.1605 11.3397 68.0742 11.3273C67.9879 11.3027 67.8523 11.278 67.6673 11.2534C67.4823 11.2164 67.3467 11.1917 67.2604 11.1794C66.8658 11.1177 66.5328 11.0561 66.2615 10.9944C65.9903 10.9204 65.6881 10.8094 65.3552 10.6615C65.0346 10.5135 64.7695 10.347 64.5598 10.162C64.3625 9.96475 64.1961 9.70579 64.0604 9.38518C63.9248 9.05224 63.857 8.66998 63.857 8.23839C63.857 7.27656 64.2454 6.53052 65.0223 6.00028C65.7991 5.47004 66.7733 5.20492 67.9447 5.20492C69.2642 5.20492 70.2877 5.47621 71.0152 6.01878C71.7427 6.54902 72.1435 7.28889 72.2175 8.23839H69.443C69.3443 7.49852 68.8387 7.12858 67.9262 7.12858C67.5316 7.12858 67.211 7.20257 66.9644 7.35054C66.7301 7.49852 66.613 7.71431 66.613 7.99793C66.613 8.07192 66.6253 8.13974 66.65 8.20139C66.6746 8.26305 66.7116 8.31854 66.7609 8.36786C66.8226 8.41719 66.8781 8.46035 66.9274 8.49734C66.9891 8.53434 67.0692 8.57133 67.1679 8.60832C67.2665 8.64532 67.3528 8.67614 67.4268 8.70081C67.5131 8.72547 67.6241 8.75013 67.7598 8.77479C67.9077 8.79946 68.0249 8.82412 68.1112 8.84878C68.2099 8.86111 68.3393 8.88577 68.4996 8.92277C68.6599 8.94743 68.7894 8.96593 68.8881 8.97826C69.3073 9.05224 69.6526 9.12007 69.9239 9.18172C70.1952 9.24338 70.5096 9.35436 70.8672 9.51466C71.2372 9.66264 71.5269 9.84144 71.7366 10.0511C71.9462 10.2484 72.125 10.5258 72.273 10.8834C72.4333 11.2287 72.5134 11.6356 72.5134 12.1042C72.5134 13.1154 72.1127 13.8922 71.3111 14.4348C70.5219 14.9774 69.4861 15.2486 68.2037 15.2486Z" fill="black"/>
<path d="M77.2817 15.2302C75.7526 15.2302 74.5257 14.7616 73.6008 13.8244C72.6883 12.8749 72.2321 11.6664 72.2321 10.199C72.2321 8.76863 72.6822 7.57867 73.5823 6.62917C74.4948 5.67967 75.6663 5.20492 77.0967 5.20492C78.3915 5.20492 79.4705 5.59952 80.3336 6.38871C81.4681 7.42453 82.023 8.95976 81.9984 10.9944H75.1916C75.2902 11.648 75.5183 12.1597 75.8759 12.5296C76.2335 12.8872 76.7145 13.066 77.3187 13.066C78.0955 13.066 78.6196 12.7516 78.8909 12.1227H81.8319C81.6099 13.0352 81.0797 13.7812 80.2412 14.3608C79.415 14.9404 78.4285 15.2302 77.2817 15.2302ZM75.2101 9.20022H78.9464C78.8971 8.63298 78.7059 8.1829 78.373 7.84996C78.0524 7.51702 77.6455 7.35054 77.1522 7.35054C76.0794 7.35054 75.432 7.9671 75.2101 9.20022Z" fill="black"/>
<path d="M5.62702 17.4016H0.214343C0.0959648 17.4016 0 17.3057 0 17.1873V1.73487C0 1.62447 0.0838623 1.53212 0.193756 1.52152L12.054 0.377112C12.1505 0.3678 12.2412 0.424426 12.2753 0.515204L16.3295 11.3265C16.368 11.4292 16.3228 11.5444 16.2247 11.5935L12.2999 13.5559C12.1949 13.6084 12.1517 13.7356 12.203 13.8412L13.6434 16.8067C13.7342 16.9937 13.5325 17.1875 13.3494 17.0893L5.30389 12.7793C5.14892 12.6962 5.1543 12.4722 5.31308 12.3967L11.1327 9.63005C11.2815 9.55927 11.2981 9.35391 11.1625 9.26016L3.23674 3.78061C3.07633 3.66971 2.86319 3.81325 2.90565 4.00359L5.83622 17.1406C5.86609 17.2745 5.76421 17.4016 5.62702 17.4016Z" fill="black"/>
</svg>
