<svg xmlns="http://www.w3.org/2000/svg" xmlns:xlink="http://www.w3.org/1999/xlink" width="500" zoomAndPan="magnify" viewBox="0 0 375 374.999991" height="500" preserveAspectRatio="xMidYMid meet" version="1.0"><defs><clipPath id="a9953d6e91"><path d="M 98.953125 67.09375 L 276.058594 67.09375 L 276.058594 307.746094 L 98.953125 307.746094 Z M 98.953125 67.09375 " clip-rule="nonzero"/></clipPath><clipPath id="0fce946bbe"><path d="M 138.921875 197.605469 L 178.804688 197.605469 L 178.804688 277.371094 L 138.921875 277.371094 Z M 138.921875 197.605469 " clip-rule="nonzero"/></clipPath><clipPath id="f5b6318645"><path d="M 138.921875 199 L 177 199 L 177 276 L 138.921875 276 Z M 138.921875 199 " clip-rule="nonzero"/></clipPath><clipPath id="2f11035261"><path d="M 138.921875 199.503906 C 159.933594 199.503906 176.992188 216.5625 176.992188 237.574219 C 176.992188 258.585938 159.933594 275.644531 138.921875 275.644531 L 138.921875 274.28125 C 159.179688 274.28125 175.628906 257.832031 175.628906 237.574219 C 175.628906 217.316406 159.179688 200.867188 138.921875 200.867188 Z M 138.921875 199.503906 " clip-rule="evenodd"/></clipPath><linearGradient x1="-0.000000194539" gradientTransform="matrix(0, 78.039762, -78.039762, 0, 138.920594, 199.502335)" y1="0" x2="0.975706" gradientUnits="userSpaceOnUse" y2="0" id="78a1dbc8fe"><stop stop-opacity="1" stop-color="rgb(59.599304%, 39.99939%, 15.299988%)" offset="0"/><stop stop-opacity="1" stop-color="rgb(59.770203%, 40.136719%, 15.306091%)" offset="0.015625"/><stop stop-opacity="1" stop-color="rgb(60.112%, 40.411377%, 15.316772%)" offset="0.03125"/><stop stop-opacity="1" stop-color="rgb(60.452271%, 40.684509%, 15.328979%)" offset="0.046875"/><stop stop-opacity="1" stop-color="rgb(60.794067%, 40.959167%, 15.341187%)" offset="0.0625"/><stop stop-opacity="1" stop-color="rgb(61.135864%, 41.233826%, 15.353394%)" offset="0.078125"/><stop stop-opacity="1" stop-color="rgb(61.477661%, 41.508484%, 15.365601%)" offset="0.09375"/><stop stop-opacity="1" stop-color="rgb(61.819458%, 41.783142%, 15.377808%)" offset="0.109375"/><stop stop-opacity="1" stop-color="rgb(62.159729%, 42.0578%, 15.390015%)" offset="0.125"/><stop stop-opacity="1" stop-color="rgb(62.501526%, 42.330933%, 15.402222%)" offset="0.140625"/><stop stop-opacity="1" stop-color="rgb(62.843323%, 42.605591%, 15.414429%)" offset="0.15625"/><stop stop-opacity="1" stop-color="rgb(63.18512%, 42.880249%, 15.426636%)" offset="0.171875"/><stop stop-opacity="1" stop-color="rgb(63.526917%, 43.154907%, 15.438843%)" offset="0.1875"/><stop stop-opacity="1" stop-color="rgb(63.867188%, 43.429565%, 15.45105%)" offset="0.203125"/><stop stop-opacity="1" stop-color="rgb(64.208984%, 43.704224%, 15.463257%)" offset="0.21875"/><stop stop-opacity="1" stop-color="rgb(64.550781%, 43.978882%, 15.475464%)" offset="0.234375"/><stop stop-opacity="1" stop-color="rgb(64.892578%, 44.252014%, 15.487671%)" offset="0.25"/><stop stop-opacity="1" stop-color="rgb(65.234375%, 44.526672%, 15.499878%)" offset="0.265625"/><stop stop-opacity="1" stop-color="rgb(65.574646%, 44.801331%, 15.512085%)" offset="0.28125"/><stop stop-opacity="1" stop-color="rgb(65.916443%, 45.075989%, 15.524292%)" offset="0.296875"/><stop stop-opacity="1" stop-color="rgb(66.25824%, 45.350647%, 15.536499%)" offset="0.3125"/><stop stop-opacity="1" stop-color="rgb(66.600037%, 45.625305%, 15.548706%)" offset="0.328125"/><stop stop-opacity="1" stop-color="rgb(66.941833%, 45.898438%, 15.560913%)" offset="0.34375"/><stop stop-opacity="1" stop-color="rgb(67.282104%, 46.173096%, 15.57312%)" offset="0.359375"/><stop stop-opacity="1" stop-color="rgb(67.623901%, 46.447754%, 15.585327%)" offset="0.375"/><stop stop-opacity="1" stop-color="rgb(67.965698%, 46.722412%, 15.597534%)" offset="0.390625"/><stop stop-opacity="1" stop-color="rgb(68.307495%, 46.99707%, 15.609741%)" offset="0.40625"/><stop stop-opacity="1" stop-color="rgb(68.649292%, 47.271729%, 15.621948%)" offset="0.421875"/><stop stop-opacity="1" stop-color="rgb(68.989563%, 47.544861%, 15.634155%)" offset="0.4375"/><stop stop-opacity="1" stop-color="rgb(69.33136%, 47.819519%, 15.646362%)" offset="0.453125"/><stop stop-opacity="1" stop-color="rgb(69.673157%, 48.094177%, 15.658569%)" offset="0.46875"/><stop stop-opacity="1" stop-color="rgb(70.014954%, 48.368835%, 15.670776%)" offset="0.484375"/><stop stop-opacity="1" stop-color="rgb(70.35675%, 48.643494%, 15.682983%)" offset="0.5"/><stop stop-opacity="1" stop-color="rgb(70.697021%, 48.918152%, 15.69519%)" offset="0.515625"/><stop stop-opacity="1" stop-color="rgb(71.038818%, 49.19281%, 15.707397%)" offset="0.53125"/><stop stop-opacity="1" stop-color="rgb(71.380615%, 49.465942%, 15.719604%)" offset="0.546875"/><stop stop-opacity="1" stop-color="rgb(71.722412%, 49.740601%, 15.731812%)" offset="0.5625"/><stop stop-opacity="1" stop-color="rgb(72.064209%, 50.015259%, 15.744019%)" offset="0.578125"/><stop stop-opacity="1" stop-color="rgb(72.40448%, 50.289917%, 15.756226%)" offset="0.59375"/><stop stop-opacity="1" stop-color="rgb(72.746277%, 50.564575%, 15.768433%)" offset="0.609375"/><stop stop-opacity="1" stop-color="rgb(73.088074%, 50.839233%, 15.78064%)" offset="0.625"/><stop stop-opacity="1" stop-color="rgb(73.429871%, 51.112366%, 15.792847%)" offset="0.640625"/><stop stop-opacity="1" stop-color="rgb(73.771667%, 51.387024%, 15.805054%)" offset="0.65625"/><stop stop-opacity="1" stop-color="rgb(74.113464%, 51.661682%, 15.817261%)" offset="0.671875"/><stop stop-opacity="1" stop-color="rgb(74.453735%, 51.93634%, 15.829468%)" offset="0.6875"/><stop stop-opacity="1" stop-color="rgb(74.795532%, 52.210999%, 15.841675%)" offset="0.703125"/><stop stop-opacity="1" stop-color="rgb(75.137329%, 52.485657%, 15.853882%)" offset="0.71875"/><stop stop-opacity="1" stop-color="rgb(75.479126%, 52.758789%, 15.866089%)" offset="0.734375"/><stop stop-opacity="1" stop-color="rgb(75.820923%, 53.033447%, 15.878296%)" offset="0.75"/><stop stop-opacity="1" stop-color="rgb(76.161194%, 53.308105%, 15.890503%)" offset="0.765625"/><stop stop-opacity="1" stop-color="rgb(76.502991%, 53.582764%, 15.90271%)" offset="0.78125"/><stop stop-opacity="1" stop-color="rgb(76.844788%, 53.857422%, 15.914917%)" offset="0.796875"/><stop stop-opacity="1" stop-color="rgb(77.186584%, 54.13208%, 15.927124%)" offset="0.8125"/><stop stop-opacity="1" stop-color="rgb(77.528381%, 54.406738%, 15.939331%)" offset="0.828125"/><stop stop-opacity="1" stop-color="rgb(77.868652%, 54.679871%, 15.951538%)" offset="0.84375"/><stop stop-opacity="1" stop-color="rgb(78.210449%, 54.954529%, 15.963745%)" offset="0.859375"/><stop stop-opacity="1" stop-color="rgb(78.552246%, 55.229187%, 15.975952%)" offset="0.875"/><stop stop-opacity="1" stop-color="rgb(78.894043%, 55.503845%, 15.988159%)" offset="0.890625"/><stop stop-opacity="1" stop-color="rgb(79.23584%, 55.778503%, 16.000366%)" offset="0.90625"/><stop stop-opacity="1" stop-color="rgb(79.576111%, 56.053162%, 16.012573%)" offset="0.921875"/><stop stop-opacity="1" stop-color="rgb(79.917908%, 56.326294%, 16.02478%)" offset="0.9375"/><stop stop-opacity="1" stop-color="rgb(80.259705%, 56.600952%, 16.036987%)" offset="0.953125"/><stop stop-opacity="1" stop-color="rgb(80.601501%, 56.87561%, 16.049194%)" offset="0.96875"/><stop stop-opacity="1" stop-color="rgb(80.943298%, 57.150269%, 16.061401%)" offset="0.984375"/><stop stop-opacity="1" stop-color="rgb(81.283569%, 57.424927%, 16.073608%)" offset="1"/></linearGradient><clipPath id="5d54c45d0f"><path d="M 138.921875 209 L 168 209 L 168 267 L 138.921875 267 Z M 138.921875 209 " clip-rule="nonzero"/></clipPath><clipPath id="c423b0750b"><path d="M 138.921875 222 L 155 222 L 155 253 L 138.921875 253 Z M 138.921875 222 " clip-rule="nonzero"/></clipPath><clipPath id="2468d87987"><path d="M 99.035156 197.605469 L 138.835938 197.605469 L 138.835938 277.371094 L 99.035156 277.371094 Z M 99.035156 197.605469 " clip-rule="nonzero"/></clipPath><clipPath id="8d48afd580"><path d="M 100 199 L 138.835938 199 L 138.835938 276 L 100 276 Z M 100 199 " clip-rule="nonzero"/></clipPath><clipPath id="f170e33a36"><path d="M 138.921875 199.503906 C 117.90625 199.503906 100.847656 216.5625 100.847656 237.574219 C 100.847656 258.585938 117.90625 275.644531 138.921875 275.644531 L 138.921875 274.28125 C 118.660156 274.28125 102.210938 257.832031 102.210938 237.574219 C 102.210938 217.316406 118.660156 200.867188 138.921875 200.867188 Z M 138.921875 199.503906 " clip-rule="evenodd"/></clipPath><linearGradient x1="-0.000000122781" gradientTransform="matrix(0, 78.039762, 78.039762, 0, 138.919953, 199.502315)" y1="0" x2="0.975706" gradientUnits="userSpaceOnUse" y2="0" id="06dce93b21"><stop stop-opacity="1" stop-color="rgb(59.599304%, 39.99939%, 15.299988%)" offset="0"/><stop stop-opacity="1" stop-color="rgb(59.770203%, 40.136719%, 15.306091%)" offset="0.015625"/><stop stop-opacity="1" stop-color="rgb(60.112%, 40.411377%, 15.316772%)" offset="0.03125"/><stop stop-opacity="1" stop-color="rgb(60.452271%, 40.684509%, 15.328979%)" offset="0.046875"/><stop stop-opacity="1" stop-color="rgb(60.794067%, 40.959167%, 15.341187%)" offset="0.0625"/><stop stop-opacity="1" stop-color="rgb(61.135864%, 41.233826%, 15.353394%)" offset="0.078125"/><stop stop-opacity="1" stop-color="rgb(61.477661%, 41.508484%, 15.365601%)" offset="0.09375"/><stop stop-opacity="1" stop-color="rgb(61.819458%, 41.783142%, 15.377808%)" offset="0.109375"/><stop stop-opacity="1" stop-color="rgb(62.159729%, 42.0578%, 15.390015%)" offset="0.125"/><stop stop-opacity="1" stop-color="rgb(62.501526%, 42.330933%, 15.402222%)" offset="0.140625"/><stop stop-opacity="1" stop-color="rgb(62.843323%, 42.605591%, 15.414429%)" offset="0.15625"/><stop stop-opacity="1" stop-color="rgb(63.18512%, 42.880249%, 15.426636%)" offset="0.171875"/><stop stop-opacity="1" stop-color="rgb(63.526917%, 43.154907%, 15.438843%)" offset="0.1875"/><stop stop-opacity="1" stop-color="rgb(63.867188%, 43.429565%, 15.45105%)" offset="0.203125"/><stop stop-opacity="1" stop-color="rgb(64.208984%, 43.704224%, 15.463257%)" offset="0.21875"/><stop stop-opacity="1" stop-color="rgb(64.550781%, 43.978882%, 15.475464%)" offset="0.234375"/><stop stop-opacity="1" stop-color="rgb(64.892578%, 44.252014%, 15.487671%)" offset="0.25"/><stop stop-opacity="1" stop-color="rgb(65.234375%, 44.526672%, 15.499878%)" offset="0.265625"/><stop stop-opacity="1" stop-color="rgb(65.574646%, 44.801331%, 15.512085%)" offset="0.28125"/><stop stop-opacity="1" stop-color="rgb(65.916443%, 45.075989%, 15.524292%)" offset="0.296875"/><stop stop-opacity="1" stop-color="rgb(66.25824%, 45.350647%, 15.536499%)" offset="0.3125"/><stop stop-opacity="1" stop-color="rgb(66.600037%, 45.625305%, 15.548706%)" offset="0.328125"/><stop stop-opacity="1" stop-color="rgb(66.941833%, 45.898438%, 15.560913%)" offset="0.34375"/><stop stop-opacity="1" stop-color="rgb(67.282104%, 46.173096%, 15.57312%)" offset="0.359375"/><stop stop-opacity="1" stop-color="rgb(67.623901%, 46.447754%, 15.585327%)" offset="0.375"/><stop stop-opacity="1" stop-color="rgb(67.965698%, 46.722412%, 15.597534%)" offset="0.390625"/><stop stop-opacity="1" stop-color="rgb(68.307495%, 46.99707%, 15.609741%)" offset="0.40625"/><stop stop-opacity="1" stop-color="rgb(68.649292%, 47.271729%, 15.621948%)" offset="0.421875"/><stop stop-opacity="1" stop-color="rgb(68.989563%, 47.544861%, 15.634155%)" offset="0.4375"/><stop stop-opacity="1" stop-color="rgb(69.33136%, 47.819519%, 15.646362%)" offset="0.453125"/><stop stop-opacity="1" stop-color="rgb(69.673157%, 48.094177%, 15.658569%)" offset="0.46875"/><stop stop-opacity="1" stop-color="rgb(70.014954%, 48.368835%, 15.670776%)" offset="0.484375"/><stop stop-opacity="1" stop-color="rgb(70.35675%, 48.643494%, 15.682983%)" offset="0.5"/><stop stop-opacity="1" stop-color="rgb(70.697021%, 48.918152%, 15.69519%)" offset="0.515625"/><stop stop-opacity="1" stop-color="rgb(71.038818%, 49.19281%, 15.707397%)" offset="0.53125"/><stop stop-opacity="1" stop-color="rgb(71.380615%, 49.465942%, 15.719604%)" offset="0.546875"/><stop stop-opacity="1" stop-color="rgb(71.722412%, 49.740601%, 15.731812%)" offset="0.5625"/><stop stop-opacity="1" stop-color="rgb(72.064209%, 50.015259%, 15.744019%)" offset="0.578125"/><stop stop-opacity="1" stop-color="rgb(72.40448%, 50.289917%, 15.756226%)" offset="0.59375"/><stop stop-opacity="1" stop-color="rgb(72.746277%, 50.564575%, 15.768433%)" offset="0.609375"/><stop stop-opacity="1" stop-color="rgb(73.088074%, 50.839233%, 15.78064%)" offset="0.625"/><stop stop-opacity="1" stop-color="rgb(73.429871%, 51.112366%, 15.792847%)" offset="0.640625"/><stop stop-opacity="1" stop-color="rgb(73.771667%, 51.387024%, 15.805054%)" offset="0.65625"/><stop stop-opacity="1" stop-color="rgb(74.113464%, 51.661682%, 15.817261%)" offset="0.671875"/><stop stop-opacity="1" stop-color="rgb(74.453735%, 51.93634%, 15.829468%)" offset="0.6875"/><stop stop-opacity="1" stop-color="rgb(74.795532%, 52.210999%, 15.841675%)" offset="0.703125"/><stop stop-opacity="1" stop-color="rgb(75.137329%, 52.485657%, 15.853882%)" offset="0.71875"/><stop stop-opacity="1" stop-color="rgb(75.479126%, 52.758789%, 15.866089%)" offset="0.734375"/><stop stop-opacity="1" stop-color="rgb(75.820923%, 53.033447%, 15.878296%)" offset="0.75"/><stop stop-opacity="1" stop-color="rgb(76.161194%, 53.308105%, 15.890503%)" offset="0.765625"/><stop stop-opacity="1" stop-color="rgb(76.502991%, 53.582764%, 15.90271%)" offset="0.78125"/><stop stop-opacity="1" stop-color="rgb(76.844788%, 53.857422%, 15.914917%)" offset="0.796875"/><stop stop-opacity="1" stop-color="rgb(77.186584%, 54.13208%, 15.927124%)" offset="0.8125"/><stop stop-opacity="1" stop-color="rgb(77.528381%, 54.406738%, 15.939331%)" offset="0.828125"/><stop stop-opacity="1" stop-color="rgb(77.868652%, 54.679871%, 15.951538%)" offset="0.84375"/><stop stop-opacity="1" stop-color="rgb(78.210449%, 54.954529%, 15.963745%)" offset="0.859375"/><stop stop-opacity="1" stop-color="rgb(78.552246%, 55.229187%, 15.975952%)" offset="0.875"/><stop stop-opacity="1" stop-color="rgb(78.894043%, 55.503845%, 15.988159%)" offset="0.890625"/><stop stop-opacity="1" stop-color="rgb(79.23584%, 55.778503%, 16.000366%)" offset="0.90625"/><stop stop-opacity="1" stop-color="rgb(79.576111%, 56.053162%, 16.012573%)" offset="0.921875"/><stop stop-opacity="1" stop-color="rgb(79.917908%, 56.326294%, 16.02478%)" offset="0.9375"/><stop stop-opacity="1" stop-color="rgb(80.259705%, 56.600952%, 16.036987%)" offset="0.953125"/><stop stop-opacity="1" stop-color="rgb(80.601501%, 56.87561%, 16.049194%)" offset="0.96875"/><stop stop-opacity="1" stop-color="rgb(80.943298%, 57.150269%, 16.061401%)" offset="0.984375"/><stop stop-opacity="1" stop-color="rgb(81.283569%, 57.424927%, 16.073608%)" offset="1"/></linearGradient><clipPath id="5b39f6e0cb"><path d="M 110 209 L 138.835938 209 L 138.835938 267 L 110 267 Z M 110 209 " clip-rule="nonzero"/></clipPath><clipPath id="c6ad6ce075"><path d="M 123 222 L 138.835938 222 L 138.835938 253 L 123 253 Z M 123 222 " clip-rule="nonzero"/></clipPath></defs><rect x="-37.5" width="450" fill="#ffffff" y="-37.499999" height="449.999989" fill-opacity="1"/><rect x="-37.5" width="450" fill="#1c2120" y="-37.499999" height="449.999989" fill-opacity="1"/><path fill="#666666" d="M 217.964844 187.492188 C 220.515625 189.28125 222.996094 191.152344 225.398438 193.097656 C 220.515625 196.671875 215.40625 199.992188 210.035156 202.972656 C 209.894531 203.050781 209.746094 203.109375 209.605469 203.1875 C 206.886719 201.199219 204.03125 199.363281 201.125 197.597656 C 202.671875 196.820312 204.226562 196.066406 205.742188 195.226562 C 209.996094 192.871094 214.039062 190.253906 217.964844 187.492188 Z M 130.835938 153.292969 L 130.835938 162.210938 C 133.765625 162.503906 136.710938 162.699219 139.691406 162.699219 C 142.675781 162.699219 145.628906 162.542969 148.546875 162.246094 L 148.546875 153.324219 C 145.636719 153.65625 142.691406 153.84375 139.691406 153.84375 C 136.703125 153.851562 133.757812 153.625 130.835938 153.292969 Z M 130.835938 153.292969 " fill-opacity="1" fill-rule="nonzero"/><g clip-path="url(#a9953d6e91)"><path fill="#ffffff" d="M 201.125 197.605469 C 195.722656 200.335938 190.15625 202.707031 184.441406 204.679688 C 187.976562 206.367188 191.40625 208.234375 194.703125 210.285156 C 221.992188 227.265625 240.929688 256.46875 243.777344 290.1875 L 257.980469 290.1875 C 255.382812 255.449219 237.601562 223.652344 209.605469 203.203125 C 209.746094 203.125 209.894531 203.0625 210.035156 202.988281 C 215.40625 200.007812 220.515625 196.679688 225.398438 193.113281 C 257.046875 218.753906 276.015625 257.523438 276.015625 299.050781 L 276.015625 307.902344 L 226.4375 307.902344 L 226.4375 299.050781 C 226.4375 261.941406 203.015625 230.214844 170.183594 217.84375 C 160.6875 214.265625 150.410156 212.292969 139.683594 212.292969 L 139.683594 194.589844 C 159.804688 194.589844 179.675781 189.464844 197.144531 179.765625 C 232.277344 160.28125 255.011719 124.457031 257.972656 84.8125 L 243.769531 84.8125 C 239.257812 138.285156 194.296875 180.425781 139.675781 180.425781 C 127.679688 180.425781 115.960938 178.417969 104.835938 174.460938 L 98.96875 172.347656 L 98.96875 67.09375 L 148.546875 67.09375 L 148.546875 153.332031 C 145.636719 153.664062 142.691406 153.851562 139.691406 153.851562 C 136.703125 153.851562 133.757812 153.625 130.835938 153.292969 L 130.835938 84.796875 L 116.667969 84.796875 L 116.667969 159.613281 C 121.289062 160.886719 126.03125 161.71875 130.835938 162.210938 C 133.765625 162.503906 136.710938 162.699219 139.691406 162.699219 C 142.675781 162.699219 145.628906 162.542969 148.546875 162.246094 C 192.238281 157.800781 226.445312 120.785156 226.445312 75.941406 L 226.445312 67.09375 L 276.023438 67.09375 L 276.023438 75.949219 C 276.023438 120.625 254.070312 162.132812 217.972656 187.492188 C 214.046875 190.253906 210.003906 192.871094 205.75 195.234375 C 204.226562 196.074219 202.671875 196.820312 201.125 197.605469 Z M 201.125 197.605469 " fill-opacity="1" fill-rule="nonzero"/></g><g clip-path="url(#0fce946bbe)"><path fill="#ffffff" d="M 138.921875 197.605469 C 160.980469 197.605469 178.886719 215.515625 178.886719 237.574219 C 178.886719 259.632812 160.980469 277.542969 138.921875 277.542969 Z M 138.921875 197.605469 " fill-opacity="1" fill-rule="evenodd"/></g><g clip-path="url(#f5b6318645)"><g clip-path="url(#2f11035261)"><path fill="url(#78a1dbc8fe)" d="M 176.992188 199.503906 L 138.921875 199.503906 L 138.921875 275.644531 L 176.992188 275.644531 Z M 176.992188 199.503906 " fill-rule="nonzero"/></g></g><g clip-path="url(#5d54c45d0f)"><path fill="#ffffff" d="M 138.921875 209.011719 C 154.683594 209.011719 167.484375 221.808594 167.484375 237.574219 C 167.484375 253.339844 154.683594 266.136719 138.921875 266.136719 Z M 138.921875 209.011719 " fill-opacity="1" fill-rule="evenodd"/></g><g clip-path="url(#c423b0750b)"><path fill="#ffffff" d="M 138.921875 222.15625 C 147.429688 222.15625 154.339844 229.066406 154.339844 237.574219 C 154.339844 246.082031 147.429688 252.992188 138.921875 252.992188 Z M 138.921875 222.15625 " fill-opacity="1" fill-rule="evenodd"/></g><g clip-path="url(#2468d87987)"><path fill="#ffffff" d="M 138.917969 197.605469 C 116.859375 197.605469 98.953125 215.515625 98.953125 237.574219 C 98.953125 259.632812 116.859375 277.542969 138.917969 277.542969 Z M 138.917969 197.605469 " fill-opacity="1" fill-rule="evenodd"/></g><g clip-path="url(#8d48afd580)"><g clip-path="url(#f170e33a36)"><path fill="url(#06dce93b21)" d="M 100.847656 199.503906 L 138.835938 199.503906 L 138.835938 275.644531 L 100.847656 275.644531 Z M 100.847656 199.503906 " fill-rule="nonzero"/></g></g><g clip-path="url(#5b39f6e0cb)"><path fill="#ffffff" d="M 138.917969 209.011719 C 123.15625 209.011719 110.355469 221.808594 110.355469 237.574219 C 110.355469 253.339844 123.15625 266.136719 138.917969 266.136719 Z M 138.917969 209.011719 " fill-opacity="1" fill-rule="evenodd"/></g><g clip-path="url(#c6ad6ce075)"><path fill="#ffffff" d="M 138.917969 222.15625 C 130.410156 222.15625 123.5 229.066406 123.5 237.574219 C 123.5 246.082031 130.410156 252.992188 138.917969 252.992188 Z M 138.917969 222.15625 " fill-opacity="1" fill-rule="evenodd"/></g></svg>