<?xml version="1.0" standalone="no"?>
<!DOCTYPE svg PUBLIC "-//W3C//DTD SVG 20010904//EN"
 "http://www.w3.org/TR/2001/REC-SVG-20010904/DTD/svg10.dtd">
<svg version="1.0" xmlns="http://www.w3.org/2000/svg"
 width="387.000000pt" height="161.000000pt" viewBox="0 0 387.000000 161.000000"
 preserveAspectRatio="xMidYMid meet">

<g transform="translate(0.000000,161.000000) scale(0.100000,-0.100000)"
fill="#000000" stroke="none">
<path d="M2590 1420 l0 -50 370 0 370 0 0 -375 0 -375 50 0 50 0 0 425 0 425
-420 0 -420 0 0 -50z"/>
<path d="M640 975 l0 -305 60 0 60 0 0 70 c0 39 3 70 8 70 4 0 39 -31 77 -70
l69 -70 81 0 80 0 -95 95 -95 95 85 85 85 85 -81 0 -80 0 -59 -60 c-33 -33
-63 -60 -67 -60 -4 0 -8 83 -8 185 l0 185 -60 0 -60 0 0 -305z"/>
<path d="M330 615 l0 -425 420 0 420 0 0 50 0 50 -370 0 -370 0 0 375 0 375
-50 0 -50 0 0 -425z"/>
<path d="M1130 1033 c-68 -26 -110 -94 -110 -180 0 -145 130 -233 253 -170 44
23 47 23 47 6 0 -16 8 -19 60 -19 l60 0 0 180 0 180 -60 0 c-46 0 -60 -3 -60
-15 0 -12 -6 -11 -32 5 -32 19 -121 27 -158 13z m164 -119 c32 -33 34 -81 5
-118 -16 -20 -29 -26 -62 -26 -55 0 -87 30 -87 82 0 80 88 118 144 62z"/>
<path d="M1632 1015 c-36 -30 -42 -31 -42 -5 0 18 -7 20 -60 20 l-60 0 0 -180
0 -180 60 0 60 0 0 100 c0 147 30 189 115 163 32 -10 33 -10 56 39 27 59 20
68 -53 68 -35 0 -54 -6 -76 -25z"/>
<path d="M1828 1011 c-138 -88 -105 -299 55 -342 47 -12 127 -5 166 16 28 14
77 62 70 69 -2 2 -22 13 -44 24 -40 20 -41 20 -64 1 -49 -40 -141 -13 -141 41
0 19 7 20 120 20 101 0 120 -2 120 -15 0 -27 38 -92 70 -118 41 -35 103 -51
164 -42 58 7 92 23 125 59 28 30 29 27 -24 54 -40 20 -41 20 -64 1 -49 -40
-141 -13 -141 41 0 19 7 20 130 20 l130 0 0 -85 0 -85 65 0 64 0 3 127 c3 127
3 127 31 143 24 13 30 13 55 0 27 -16 27 -16 30 -143 l3 -127 64 0 65 0 0 124
c0 118 1 126 22 140 30 21 54 20 78 -4 18 -18 20 -33 20 -140 l0 -120 65 0 65
0 0 118 c-1 139 -10 186 -44 220 -47 47 -162 40 -206 -13 -12 -14 -16 -13 -41
11 -40 38 -123 45 -174 16 -28 -17 -35 -18 -35 -7 0 12 -15 15 -65 15 l-65 0
0 -62 0 -62 -22 44 c-32 62 -83 90 -167 90 -75 0 -136 -29 -168 -81 l-20 -31
-21 36 c-47 79 -185 103 -274 47z m156 -62 c46 -36 35 -49 -44 -49 -54 0 -70
3 -70 14 0 18 47 56 70 56 10 0 29 -9 44 -21z m370 0 c46 -36 35 -49 -44 -49
-54 0 -70 3 -70 14 0 18 47 56 70 56 10 0 29 -9 44 -21z"/>
</g>
</svg>
